PathFileType	4	(X/Y/Z)	C:\Users\WrightLab\Desktop\Jo\P1_boxCal27.trc
DataRate	CameraRate	NumFrames	NumMarkers	Units	OrigDataRate	OrigDataStartFrame	OrigNumFrames
100.00	100.00	       13	19	mm	100.00	175	       465
Frame#	Time	Headset_Front			Headset_Back			Headset_Left			Headset_Right			Left_Shoulder			Right_Shoulder			Sternum			C7			Left Elbow			Right Elbow			Left Wrist			Right Wrist			Left ASIS			Right ASIS			S2			Left Knee			Right Knee			Left Ankle			Right Ankle			
		X1	Y1	Z1	X2	Y2	Z2	X3	Y3	Z3	X4	Y4	Z4	X5	Y5	Z5	X6	Y6	Z6	X7	Y7	Z7	X8	Y8	Z8	X9	Y9	Z9	X10	Y10	Z10	X11	Y11	Z11	X12	Y12	Z12	X13	Y13	Z13	X14	Y14	Z14	X15	Y15	Z15	X16	Y16	Z16	X17	Y17	Z17	X18	Y18	Z18	X19	Y19	Z19	

175	1.740	-269.61053	1417.97180	700.12854	-438.97452	1532.06055	469.67227	-282.94427	1468.04199	496.68845	-415.04187	1455.59119	679.77234	-275.77670	1294.19592	380.39258	-545.47125	1282.05322	651.08746	-323.29410	1197.45154	625.32916	-482.24994	1290.51575	429.39972	-212.70526	976.73615	312.74219	-630.10101	1007.88190	669.78162	-73.61875	809.15356	372.27512	-628.05103	784.01227	770.63373	-226.31065	919.11511	558.47699	-374.56195	908.19006	692.31531	-509.04135	909.56769	383.64072	-281.15656	458.68845	428.52887	-428.48248	509.46649	759.33551	-370.78641	92.15273	455.82111	-396.64658	90.14667	566.80518	
176	1.750	-263.76202	1418.78027	706.75763	-432.68826	1532.60767	475.96237	-276.37418	1468.47009	502.77707	-409.01056	1456.14771	686.36597	-269.15436	1294.75195	386.61813	-539.28723	1282.81116	656.77704	-317.22235	1197.33655	630.78424	-475.64435	1291.02722	435.70813	-205.06158	977.66174	320.44806	-624.93048	1009.09900	674.82629	-65.38219	809.87256	380.85236	-624.88806	785.09424	775.32257	-221.66904	919.83295	562.43896	-367.86130	909.66730	698.88007	-504.63422	909.94263	391.26147	-280.94205	458.85400	430.23920	-416.25201	512.08698	765.47223	-370.32657	92.53037	455.76746	-424.17603	34.87001	469.09470	
177	1.760	-256.91608	1419.22852	713.31989	-426.30984	1532.94495	482.45956	-270.06943	1469.18640	510.36850	-402.49588	1456.54407	692.54059	-262.75705	1295.17529	393.26706	-533.51166	1283.51880	663.04260	-310.78516	1198.09485	635.66443	-469.00446	1291.73633	441.56616	-197.24863	977.78931	328.65134	-620.39050	1010.19513	679.88135	-58.32096	811.06781	388.60300	-621.54346	785.99420	779.52350	-215.85626	921.14758	567.69501	-359.87695	910.39984	705.13403	-500.33224	910.77667	399.96860	-280.94324	459.55167	434.10818	-403.85980	513.56348	771.22797	-370.66071	93.74141	455.50308	-459.12195	127.68371	666.11053	
178	1.770	-250.76312	1419.72693	719.82385	-419.73776	1533.43640	489.14737	-263.89517	1469.62842	516.33673	-396.27271	1456.77478	699.14612	-255.54715	1295.15063	400.39816	-527.40234	1284.39648	669.30927	-304.68155	1199.06458	643.18677	-462.22754	1292.19287	447.79001	-190.16963	977.83789	336.18829	-614.87219	1010.84064	684.56433	-49.98956	811.51263	396.74759	-617.90076	786.58411	784.55231	-210.32823	922.23151	571.58679	-352.26242	911.06970	711.33215	-496.41943	911.07806	408.08313	-279.96844	460.79004	437.22433	-390.05392	516.09448	777.00507	-370.79773	93.76353	455.74084	-434.29132	119.44511	682.48645	
179	1.780	-244.95303	1420.09363	726.73352	-413.44827	1533.26184	495.40472	-257.74658	1469.95813	521.59351	-390.25208	1456.98633	705.55334	-248.97675	1295.01416	407.02866	-520.96692	1284.34766	674.98108	-299.07748	1198.00500	648.63519	-455.48749	1292.29041	454.10291	-182.20619	977.89105	343.62973	-611.29645	1012.25824	689.43188	-42.11112	811.73193	405.56149	-615.89807	787.94086	789.55188	-204.83322	922.22028	576.81708	-345.54803	912.32013	717.95850	-491.38428	911.45520	416.27704	-278.78073	460.56705	440.71509	-377.91956	517.44305	782.71826	-371.27945	94.84679	455.37885	-408.85233	116.36599	703.98907	
180	1.790	-238.21043	1420.44897	733.46155	-406.74939	1533.16956	501.64853	-250.96599	1470.58179	528.73987	-384.01370	1456.95239	711.82074	-241.99188	1295.37622	413.34277	-514.95404	1284.45300	680.98529	-293.10651	1197.88159	654.16052	-448.44180	1291.94458	460.60712	-174.12320	977.43225	351.59067	-604.63464	1011.82654	694.49005	-34.66537	811.94818	413.45099	-612.64764	788.04950	794.49402	-198.93953	922.83856	582.14294	-338.34860	912.62177	724.22772	-487.36615	911.85193	424.14886	-277.89203	461.23477	444.43307	-366.42633	518.45947	787.54419	-371.23288	95.00047	455.56342	-382.37161	113.13155	724.16638	
181	1.800	-232.46480	1420.46716	740.55078	-400.50049	1532.76001	508.67648	-244.19420	1469.66077	536.76501	-377.70181	1456.62207	718.73322	-235.05711	1294.75305	420.57108	-508.99435	1284.60608	687.45520	-285.91302	1197.79614	663.83130	-441.96744	1292.30176	467.07068	-166.93571	977.30042	358.92273	-600.94733	1012.77686	698.78699	-27.22017	811.77545	422.49561	-610.97327	789.05267	799.27997	-192.45332	922.22681	588.07733	-331.53885	912.47418	730.66864	-482.86850	912.10266	432.33896	-277.30530	461.49857	447.34155	-355.12811	518.55304	792.51410	-371.27863	95.28960	456.10678	-357.30609	113.28232	748.42877	
182	1.810	-226.54752	1420.74011	747.55243	-393.86118	1532.26184	515.05316	-237.73701	1469.61951	543.05255	-371.39218	1456.30688	725.36877	-228.20303	1293.90173	427.25406	-502.33966	1284.03235	693.16394	-280.42282	1196.32117	670.99261	-434.69824	1291.60596	473.69211	-158.90196	976.89453	366.15274	-595.44568	1012.46307	703.72131	-19.56096	811.27893	430.48663	-608.74457	789.33020	804.70294	-185.63000	921.54846	593.43896	-324.74564	912.37323	737.25305	-478.71420	912.51715	440.30719	-275.52283	461.54095	450.70331	-344.61786	517.30157	796.64655	-371.27863	95.28960	456.10678	-423.22946	130.95900	643.06177	
183	1.820	-219.53163	1420.03528	754.53870	-387.46829	1531.46033	521.58368	-231.28801	1469.50488	549.58032	-365.18146	1455.90393	732.09619	-221.06882	1293.73230	434.78131	-496.44998	1283.66663	699.79156	-273.40308	1195.85217	676.68774	-428.91479	1291.92236	480.41336	-151.40909	975.86255	373.49429	-590.30255	1012.27258	709.06946	-12.80625	811.14142	438.74878	-606.95874	789.90588	810.05707	-179.58224	919.86682	599.48334	-317.50125	911.56287	742.95709	-474.21002	912.00214	448.06815	-273.61179	461.84531	453.49826	-335.54694	514.86292	801.51599	-371.36218	96.24394	456.52997	-364.71393	-26.15186	550.06958	
184	1.830	-213.60107	1419.49683	761.55884	-381.06058	1530.69812	528.56836	-224.93533	1468.34351	557.40741	-358.95602	1455.34131	739.12677	-214.27209	1292.58813	441.92340	-489.99344	1282.92468	706.24487	-267.72992	1195.17017	684.35828	-421.97266	1291.52844	486.76569	-143.82379	974.98077	381.99652	-585.16199	1011.76312	713.94025	-5.36970	810.50549	447.53561	-605.00836	790.15991	814.96619	-172.87708	918.39697	604.96838	-310.89322	911.04266	749.65747	-469.24142	911.75067	456.31717	-270.58426	461.18512	456.74606	-324.25180	515.56830	803.00464	-371.07462	96.52327	456.56784	-345.96396	-38.63810	560.67810	
185	1.840	-206.98082	1419.00073	768.67114	-374.66205	1529.70471	535.43317	-218.39665	1468.26892	564.03467	-352.32870	1454.26062	745.91504	-207.82158	1291.58484	448.70206	-483.72043	1282.27429	713.29205	-261.37689	1193.76624	689.94830	-415.55707	1290.52991	493.56311	-136.46431	973.98938	390.00372	-578.58917	1010.64246	719.53064	1.41966	809.57355	455.94446	-603.10327	790.41089	820.18848	-166.40063	917.41272	610.44495	-303.33942	910.20007	755.93298	-465.32925	911.62994	464.62943	-268.09552	460.59167	459.47705	-315.71405	512.57068	806.12744	-371.14935	96.89658	456.68771	-252.13564	111.47806	818.96326	
186	1.850	-200.93456	1418.50928	775.96808	-368.29416	1528.70984	542.38922	-211.64824	1467.66858	571.25378	-346.51883	1453.50732	753.21088	-200.83633	1290.54102	455.87491	-477.40088	1281.60718	720.61707	-255.37460	1193.83728	696.95453	-408.51367	1289.58081	501.01761	-128.54167	972.73413	398.18018	-574.32349	1010.54004	724.95386	8.24444	808.77802	463.77402	-600.82825	790.57996	824.88232	-160.52010	915.60059	616.52155	-295.94824	909.38043	762.34998	-460.03647	910.91870	472.38504	-265.35046	460.27017	461.86273	-307.38843	510.52774	809.23273	-370.95563	96.60268	457.41162	-225.50345	113.95090	834.44659	
187	1.860	-194.49544	1417.42407	783.27069	-362.00259	1527.41492	549.77557	-205.63768	1466.56030	578.11743	-339.91458	1451.73352	760.41895	-194.36787	1289.27722	462.99768	-470.86438	1280.73438	727.66278	-248.62909	1192.55554	706.00293	-401.85773	1288.31323	508.56107	-121.66126	971.91473	405.42801	-569.34125	1010.10236	731.11273	15.02876	807.42981	472.89789	-598.81537	790.60132	830.28973	-154.41257	914.39941	622.33069	-288.68567	908.37018	769.77496	-455.59668	910.55505	480.95581	-261.33542	459.78976	464.86459	-298.28195	508.27515	812.82349	-370.32962	97.51520	458.14847	-202.31335	118.32123	850.22784	
